<svg width="25" height="25" viewBox="0 0 25 25" fill="none" xmlns="http://www.w3.org/2000/svg">
<g clip-path="url(#clip0_171_20269)">
<path d="M4.73796 21.6128C2.1498 19.4049 0.5 16.124 0.5 12.4875C0.5 5.87102 5.87567 0.5 12.5 0.5C19.1243 0.5 24.5 5.87102 24.5 12.4875C24.5 16.1294 22.8451 19.4172 20.2954 21.652L20.2006 21.7351C20.1141 21.8009 20.0233 21.8677 19.9286 21.9375L19.926 21.9394C19.8162 22.0202 19.7009 22.1051 19.5898 22.1908C19.513 22.2393 19.4467 22.2909 19.3997 22.3274L19.3932 22.3324C19.3334 22.379 19.3004 22.4038 19.2679 22.4233L19.2565 22.4301L19.2455 22.4376C17.3239 23.7334 15.0204 24.5 12.525 24.5C10.0376 24.5 7.74094 23.7383 5.82306 22.4501C5.80966 22.4389 5.7935 22.4252 5.77514 22.4095C5.69371 22.3401 5.56895 22.2337 5.44941 22.1592C5.23902 22.0116 5.04602 21.8632 4.84716 21.7089C4.80072 21.6553 4.75494 21.6241 4.73796 21.6128ZM5.72887 21.3665L5.69156 21.6646L5.9373 21.8375C7.79151 23.142 10.041 23.9266 12.5 23.9266C14.9595 23.9266 17.2078 23.1417 19.085 21.8394L19.3407 21.662L19.2945 21.3543C19.2142 20.8199 19.08 20.3093 18.8909 19.8236L18.8911 19.8236L18.886 19.8115C18.5367 18.9794 18.0509 18.2501 17.4284 17.6283L17.4285 17.6282L17.4204 17.6205C16.8019 17.0295 16.0755 16.5459 15.2432 16.1972C14.4054 15.8462 13.4896 15.6588 12.5 15.6588C11.882 15.6588 11.2627 15.7393 10.6686 15.9012C10.0828 16.0608 9.54186 16.276 9.02467 16.5752L9.0246 16.575L9.01446 16.5812C8.5347 16.8741 8.05546 17.2458 7.6523 17.6476C7.21498 18.0584 6.86241 18.521 6.5674 19.03C6.27196 19.5398 6.02964 20.1041 5.86765 20.6975L5.86754 20.6975L5.86496 20.7078L5.86189 20.7201C5.8139 20.9118 5.75765 21.1365 5.72887 21.3665ZM14.2954 14.5462L14.2954 14.5463L14.305 14.542C14.8541 14.2951 15.356 13.9625 15.7784 13.5405C16.2008 13.1186 16.5337 12.6172 16.7809 12.0685C17.0388 11.496 17.15 10.9001 17.15 10.2647C17.15 9.65599 17.0393 9.03477 16.7809 8.46098C16.5337 7.91232 16.2008 7.41088 15.7784 6.98893C15.356 6.56698 14.8541 6.23437 14.305 5.98752C13.7321 5.72997 13.1358 5.61888 12.5 5.61888C11.8908 5.61888 11.2692 5.72939 10.695 5.98752C10.1459 6.23437 9.64399 6.56698 9.22162 6.98893C8.79925 7.41088 8.46626 7.91232 8.21912 8.46098C7.96065 9.03477 7.85 9.65599 7.85 10.2647C7.85 10.87 7.95941 11.4877 8.21476 12.0588C8.44039 12.6184 8.77703 13.1214 9.19662 13.5405C9.61899 13.9625 10.1209 14.2951 10.67 14.542L10.6699 14.5421L10.6796 14.5462C11.8045 15.0237 13.1705 15.0237 14.2954 14.5462ZM19.7591 20.1372C19.7638 20.1654 19.7697 20.1897 19.775 20.2087V21.372L20.6306 20.5063C22.6671 18.4458 23.95 15.6244 23.95 12.4875C23.95 6.19192 18.8007 1.04845 12.5 1.04845C6.19933 1.04845 1.05 6.19192 1.05 12.4875C1.05 15.6252 2.33349 18.4464 4.39441 20.5313L5.25 21.3969V20.2112L5.2522 20.2042C5.48722 19.4529 5.81416 18.7771 6.25619 18.1487C6.70425 17.5369 7.2455 16.9735 7.85466 16.5054L7.85469 16.5054L7.85963 16.5015C8.29819 16.1556 8.81277 15.8506 9.38316 15.5895L10.2196 15.2065L9.44325 14.7129C9.19827 14.5572 8.97694 14.3801 8.77838 14.1817C8.41581 13.8195 8.10369 13.4584 7.88698 13.0687L7.88194 13.0596L7.87652 13.0508C7.62798 12.6445 7.44494 12.2124 7.30573 11.7256L7.30577 11.7256L7.30387 11.7193C7.16861 11.2689 7.1 10.7931 7.1 10.2897C7.1 9.52652 7.23877 8.8202 7.5095 8.18913C7.78699 7.5423 8.1778 6.94771 8.65338 6.47261L8.65347 6.47271L8.66151 6.4643C9.13341 5.97042 9.72462 5.58188 10.3718 5.3048C11.0036 5.03428 11.7109 4.8956 12.475 4.8956C13.2391 4.8956 13.9464 5.03428 14.5782 5.3048C15.2258 5.58206 15.821 5.97253 16.2966 6.44764C16.8026 6.95311 17.1911 7.52462 17.4655 8.16416C17.7362 8.79523 17.875 9.50155 17.875 10.2647C17.875 10.7577 17.8279 11.2333 17.6943 11.7007C17.5551 12.1874 17.372 12.6195 17.1235 13.0258C16.8717 13.4373 16.5725 13.8063 16.2216 14.1568C16.0335 14.3447 15.8129 14.541 15.5818 14.6879L14.7869 15.1933L15.6508 15.5685C16.1881 15.8019 16.7045 16.1064 17.1752 16.4591L17.1776 16.4609C17.8019 16.9229 18.316 17.4809 18.7662 18.1201C19.1983 18.7334 19.523 19.4193 19.7591 20.1372ZM19.7894 20.2546C19.7894 20.2545 19.7889 20.253 19.7881 20.2503L19.7882 20.2507C19.7891 20.2534 19.7895 20.2546 19.7894 20.2546Z" fill="#007ACC" stroke="#007ACC"/>
</g>
<defs>
<clipPath id="clip0_171_20269">
<rect width="25" height="25" fill="white"/>
</clipPath>
</defs>
</svg>
