<svg width="35" height="35" viewBox="0 0 35 35" fill="none" xmlns="http://www.w3.org/2000/svg">
<ellipse cx="11.6667" cy="11.6667" rx="11.6667" ry="11.6667" transform="matrix(-4.37114e-08 1 1 4.37114e-08 2.91675 5.83331)" fill="#E99B01"/>
<path d="M26.5501 17.5C26.5501 24.109 21.1924 29.4666 14.5834 29.4666C7.97441 29.4666 2.61675 24.109 2.61675 17.5C2.61675 10.891 7.97441 5.53331 14.5834 5.53331C21.1924 5.53331 26.5501 10.891 26.5501 17.5Z" stroke="#7E869E" stroke-opacity="0.25" stroke-width="0.6"/>
<path d="M27.8121 7.18801C25.7725 5.14849 23.174 3.75956 20.3451 3.19686C17.5163 2.63416 14.584 2.92296 11.9193 4.02674C9.25453 5.13051 6.97692 6.9997 5.37448 9.39791C3.77205 11.7961 2.91675 14.6157 2.91675 17.5C2.91675 20.3843 3.77205 23.2038 5.37448 25.602C6.97692 28.0003 9.25452 29.8694 11.9193 30.9732C14.584 32.077 17.5163 32.3658 20.3451 31.8031C23.174 31.2404 25.7725 29.8515 27.8121 27.812" stroke="#222222" stroke-width="1.2"/>
<path d="M13.125 17.5L12.6565 17.8748L12.3566 17.5L12.6565 17.1252L13.125 17.5ZM30.625 16.9C30.9564 16.9 31.225 17.1687 31.225 17.5C31.225 17.8314 30.9564 18.1 30.625 18.1V16.9ZM18.4898 25.1665L12.6565 17.8748L13.5935 17.1252L19.4269 24.4169L18.4898 25.1665ZM12.6565 17.1252L18.4898 9.83354L19.4269 10.5832L13.5935 17.8748L12.6565 17.1252ZM13.125 16.9H30.625V18.1H13.125L13.125 16.9Z" fill="#222222"/>
</svg>
