<svg width="18" height="18" viewBox="0 0 18 18" fill="none" xmlns="http://www.w3.org/2000/svg">
<path d="M16.3125 4.5H12.375V2.8125L11.8125 2.25H6.1875L5.625 2.8125V4.5H1.6875L1.125 5.0625V14.0625L1.6875 14.625H16.3125L16.875 14.0625V5.0625L16.3125 4.5ZM6.75 3.375H11.25V4.5H6.75V3.375ZM15.75 5.625V6.48L11.25 9V8.4375L10.6988 7.875H7.32375L6.75 8.4375V9L2.25 6.42375V5.625H15.75ZM10.125 9V10.125H7.875V9H10.125ZM2.25 13.5V7.7175L6.75 10.2937V10.6875L7.3125 11.25H10.6875L11.25 10.6875V10.3387L15.75 7.77375V13.5H2.25Z" fill="#424242"/>
</svg>
