<svg width="18" height="18" viewBox="0 0 18 18" fill="none" xmlns="http://www.w3.org/2000/svg">
<path fill-rule="evenodd" clip-rule="evenodd" d="M16.3125 2.25H14.625V1.125H13.5V2.25H4.5V1.125H3.375V2.25H1.6875L1.125 2.8125V16.3125L1.6875 16.875H16.3125L16.875 16.3125V2.8125L16.3125 2.25ZM15.75 15.75H2.25V5.625H15.75V15.75ZM15.75 4.5H2.25V3.375H15.75V4.5ZM4.5 9H3.375V10.125H4.5V9ZM3.375 11.25H4.5V12.375H3.375V11.25ZM4.5 13.5H3.375V14.625H4.5V13.5ZM6.75 9H7.875V10.125H6.75V9ZM7.875 11.25H6.75V12.375H7.875V11.25ZM6.75 13.5H7.875V14.625H6.75V13.5ZM7.875 6.75H6.75V7.875H7.875V6.75ZM10.125 9H11.25V10.125H10.125V9ZM11.25 11.25H10.125V12.375H11.25V11.25ZM10.125 13.5H11.25V14.625H10.125V13.5ZM11.25 6.75H10.125V7.875H11.25V6.75ZM13.5 9H14.625V10.125H13.5V9ZM14.625 11.25H13.5V12.375H14.625V11.25ZM13.5 6.75H14.625V7.875H13.5V6.75Z" fill="#424242"/>
</svg>
