<svg width="22" height="22" viewBox="0 0 22 22" fill="none" xmlns="http://www.w3.org/2000/svg">
<mask id="path-1-inside-1_201_18549" fill="white">
<path fill-rule="evenodd" clip-rule="evenodd" d="M19.9375 2.75H17.875V1.375H16.5V2.75H5.5V1.375H4.125V2.75H2.0625L1.375 3.4375V19.9375L2.0625 20.625H19.9375L20.625 19.9375V3.4375L19.9375 2.75ZM19.25 19.25H2.75V6.875H19.25V19.25ZM19.25 5.5H2.75V4.125H19.25V5.5ZM5.5 11H4.125V12.375H5.5V11ZM4.125 13.75H5.5V15.125H4.125V13.75ZM5.5 16.5H4.125V17.875H5.5V16.5ZM8.25 11H9.625V12.375H8.25V11ZM9.625 13.75H8.25V15.125H9.625V13.75ZM8.25 16.5H9.625V17.875H8.25V16.5ZM9.625 8.25H8.25V9.625H9.625V8.25ZM12.375 11H13.75V12.375H12.375V11ZM13.75 13.75H12.375V15.125H13.75V13.75ZM12.375 16.5H13.75V17.875H12.375V16.5ZM13.75 8.25H12.375V9.625H13.75V8.25ZM16.5 11H17.875V12.375H16.5V11ZM17.875 13.75H16.5V15.125H17.875V13.75ZM16.5 8.25H17.875V9.625H16.5V8.25Z"/>
</mask>
<path fill-rule="evenodd" clip-rule="evenodd" d="M19.9375 2.75H17.875V1.375H16.5V2.75H5.5V1.375H4.125V2.75H2.0625L1.375 3.4375V19.9375L2.0625 20.625H19.9375L20.625 19.9375V3.4375L19.9375 2.75ZM19.25 19.25H2.75V6.875H19.25V19.25ZM19.25 5.5H2.75V4.125H19.25V5.5ZM5.5 11H4.125V12.375H5.5V11ZM4.125 13.75H5.5V15.125H4.125V13.75ZM5.5 16.5H4.125V17.875H5.5V16.5ZM8.25 11H9.625V12.375H8.25V11ZM9.625 13.75H8.25V15.125H9.625V13.75ZM8.25 16.5H9.625V17.875H8.25V16.5ZM9.625 8.25H8.25V9.625H9.625V8.25ZM12.375 11H13.75V12.375H12.375V11ZM13.75 13.75H12.375V15.125H13.75V13.75ZM12.375 16.5H13.75V17.875H12.375V16.5ZM13.75 8.25H12.375V9.625H13.75V8.25ZM16.5 11H17.875V12.375H16.5V11ZM17.875 13.75H16.5V15.125H17.875V13.75ZM16.5 8.25H17.875V9.625H16.5V8.25Z" fill="#E99B01"/>
<path d="M17.875 2.75H16.875V3.75H17.875V2.75ZM19.9375 2.75L20.6446 2.04289L20.3517 1.75H19.9375V2.75ZM17.875 1.375H18.875V0.375H17.875V1.375ZM16.5 1.375V0.375H15.5V1.375H16.5ZM16.5 2.75V3.75H17.5V2.75H16.5ZM5.5 2.75H4.5V3.75H5.5V2.75ZM5.5 1.375H6.5V0.375H5.5V1.375ZM4.125 1.375V0.375H3.125V1.375H4.125ZM4.125 2.75V3.75H5.125V2.75H4.125ZM2.0625 2.75V1.75H1.64829L1.35539 2.04289L2.0625 2.75ZM1.375 3.4375L0.667893 2.73039L0.375 3.02329V3.4375H1.375ZM1.375 19.9375H0.375V20.3517L0.667893 20.6446L1.375 19.9375ZM2.0625 20.625L1.35539 21.3321L1.64829 21.625H2.0625V20.625ZM19.9375 20.625V21.625H20.3517L20.6446 21.3321L19.9375 20.625ZM20.625 19.9375L21.3321 20.6446L21.625 20.3517V19.9375H20.625ZM20.625 3.4375H21.625V3.02329L21.3321 2.73039L20.625 3.4375ZM2.75 19.25H1.75V20.25H2.75V19.25ZM19.25 19.25V20.25H20.25V19.25H19.25ZM2.75 6.875V5.875H1.75V6.875H2.75ZM19.25 6.875H20.25V5.875H19.25V6.875ZM2.75 5.5H1.75V6.5H2.75V5.5ZM19.25 5.5V6.5H20.25V5.5H19.25ZM2.75 4.125V3.125H1.75V4.125H2.75ZM19.25 4.125H20.25V3.125H19.25V4.125ZM4.125 11V10H3.125V11H4.125ZM5.5 11H6.5V10H5.5V11ZM4.125 12.375H3.125V13.375H4.125V12.375ZM5.5 12.375V13.375H6.5V12.375H5.5ZM5.5 13.75H6.5V12.75H5.5V13.75ZM4.125 13.75V12.75H3.125V13.75H4.125ZM5.5 15.125V16.125H6.5V15.125H5.5ZM4.125 15.125H3.125V16.125H4.125V15.125ZM4.125 16.5V15.5H3.125V16.5H4.125ZM5.5 16.5H6.5V15.5H5.5V16.5ZM4.125 17.875H3.125V18.875H4.125V17.875ZM5.5 17.875V18.875H6.5V17.875H5.5ZM9.625 11H10.625V10H9.625V11ZM8.25 11V10H7.25V11H8.25ZM9.625 12.375V13.375H10.625V12.375H9.625ZM8.25 12.375H7.25V13.375H8.25V12.375ZM8.25 13.75V12.75H7.25V13.75H8.25ZM9.625 13.75H10.625V12.75H9.625V13.75ZM8.25 15.125H7.25V16.125H8.25V15.125ZM9.625 15.125V16.125H10.625V15.125H9.625ZM9.625 16.5H10.625V15.5H9.625V16.5ZM8.25 16.5V15.5H7.25V16.5H8.25ZM9.625 17.875V18.875H10.625V17.875H9.625ZM8.25 17.875H7.25V18.875H8.25V17.875ZM8.25 8.25V7.25H7.25V8.25H8.25ZM9.625 8.25H10.625V7.25H9.625V8.25ZM8.25 9.625H7.25V10.625H8.25V9.625ZM9.625 9.625V10.625H10.625V9.625H9.625ZM13.75 11H14.75V10H13.75V11ZM12.375 11V10H11.375V11H12.375ZM13.75 12.375V13.375H14.75V12.375H13.75ZM12.375 12.375H11.375V13.375H12.375V12.375ZM12.375 13.75V12.75H11.375V13.75H12.375ZM13.75 13.75H14.75V12.75H13.75V13.75ZM12.375 15.125H11.375V16.125H12.375V15.125ZM13.75 15.125V16.125H14.75V15.125H13.75ZM13.75 16.5H14.75V15.5H13.75V16.5ZM12.375 16.5V15.5H11.375V16.5H12.375ZM13.75 17.875V18.875H14.75V17.875H13.75ZM12.375 17.875H11.375V18.875H12.375V17.875ZM12.375 8.25V7.25H11.375V8.25H12.375ZM13.75 8.25H14.75V7.25H13.75V8.25ZM12.375 9.625H11.375V10.625H12.375V9.625ZM13.75 9.625V10.625H14.75V9.625H13.75ZM17.875 11H18.875V10H17.875V11ZM16.5 11V10H15.5V11H16.5ZM17.875 12.375V13.375H18.875V12.375H17.875ZM16.5 12.375H15.5V13.375H16.5V12.375ZM16.5 13.75V12.75H15.5V13.75H16.5ZM17.875 13.75H18.875V12.75H17.875V13.75ZM16.5 15.125H15.5V16.125H16.5V15.125ZM17.875 15.125V16.125H18.875V15.125H17.875ZM17.875 8.25H18.875V7.25H17.875V8.25ZM16.5 8.25V7.25H15.5V8.25H16.5ZM17.875 9.625V10.625H18.875V9.625H17.875ZM16.5 9.625H15.5V10.625H16.5V9.625ZM17.875 3.75H19.9375V1.75H17.875V3.75ZM16.875 1.375V2.75H18.875V1.375H16.875ZM16.5 2.375H17.875V0.375H16.5V2.375ZM17.5 2.75V1.375H15.5V2.75H17.5ZM5.5 3.75H16.5V1.75H5.5V3.75ZM4.5 1.375V2.75H6.5V1.375H4.5ZM4.125 2.375H5.5V0.375H4.125V2.375ZM5.125 2.75V1.375H3.125V2.75H5.125ZM2.0625 3.75H4.125V1.75H2.0625V3.75ZM2.08211 4.14461L2.76961 3.45711L1.35539 2.04289L0.667893 2.73039L2.08211 4.14461ZM2.375 19.9375V3.4375H0.375V19.9375H2.375ZM2.76961 19.9179L2.08211 19.2304L0.667893 20.6446L1.35539 21.3321L2.76961 19.9179ZM19.9375 19.625H2.0625V21.625H19.9375V19.625ZM19.9179 19.2304L19.2304 19.9179L20.6446 21.3321L21.3321 20.6446L19.9179 19.2304ZM19.625 3.4375V19.9375H21.625V3.4375H19.625ZM19.2304 3.45711L19.9179 4.14461L21.3321 2.73039L20.6446 2.04289L19.2304 3.45711ZM2.75 20.25H19.25V18.25H2.75V20.25ZM1.75 6.875V19.25H3.75V6.875H1.75ZM19.25 5.875H2.75V7.875H19.25V5.875ZM20.25 19.25V6.875H18.25V19.25H20.25ZM2.75 6.5H19.25V4.5H2.75V6.5ZM1.75 4.125V5.5H3.75V4.125H1.75ZM19.25 3.125H2.75V5.125H19.25V3.125ZM20.25 5.5V4.125H18.25V5.5H20.25ZM4.125 12H5.5V10H4.125V12ZM5.125 12.375V11H3.125V12.375H5.125ZM5.5 11.375H4.125V13.375H5.5V11.375ZM4.5 11V12.375H6.5V11H4.5ZM5.5 12.75H4.125V14.75H5.5V12.75ZM6.5 15.125V13.75H4.5V15.125H6.5ZM4.125 16.125H5.5V14.125H4.125V16.125ZM3.125 13.75V15.125H5.125V13.75H3.125ZM4.125 17.5H5.5V15.5H4.125V17.5ZM5.125 17.875V16.5H3.125V17.875H5.125ZM5.5 16.875H4.125V18.875H5.5V16.875ZM4.5 16.5V17.875H6.5V16.5H4.5ZM9.625 10H8.25V12H9.625V10ZM10.625 12.375V11H8.625V12.375H10.625ZM8.25 13.375H9.625V11.375H8.25V13.375ZM7.25 11V12.375H9.25V11H7.25ZM8.25 14.75H9.625V12.75H8.25V14.75ZM9.25 15.125V13.75H7.25V15.125H9.25ZM9.625 14.125H8.25V16.125H9.625V14.125ZM8.625 13.75V15.125H10.625V13.75H8.625ZM9.625 15.5H8.25V17.5H9.625V15.5ZM10.625 17.875V16.5H8.625V17.875H10.625ZM8.25 18.875H9.625V16.875H8.25V18.875ZM7.25 16.5V17.875H9.25V16.5H7.25ZM8.25 9.25H9.625V7.25H8.25V9.25ZM9.25 9.625V8.25H7.25V9.625H9.25ZM9.625 8.625H8.25V10.625H9.625V8.625ZM8.625 8.25V9.625H10.625V8.25H8.625ZM13.75 10H12.375V12H13.75V10ZM14.75 12.375V11H12.75V12.375H14.75ZM12.375 13.375H13.75V11.375H12.375V13.375ZM11.375 11V12.375H13.375V11H11.375ZM12.375 14.75H13.75V12.75H12.375V14.75ZM13.375 15.125V13.75H11.375V15.125H13.375ZM13.75 14.125H12.375V16.125H13.75V14.125ZM12.75 13.75V15.125H14.75V13.75H12.75ZM13.75 15.5H12.375V17.5H13.75V15.5ZM14.75 17.875V16.5H12.75V17.875H14.75ZM12.375 18.875H13.75V16.875H12.375V18.875ZM11.375 16.5V17.875H13.375V16.5H11.375ZM12.375 9.25H13.75V7.25H12.375V9.25ZM13.375 9.625V8.25H11.375V9.625H13.375ZM13.75 8.625H12.375V10.625H13.75V8.625ZM12.75 8.25V9.625H14.75V8.25H12.75ZM17.875 10H16.5V12H17.875V10ZM18.875 12.375V11H16.875V12.375H18.875ZM16.5 13.375H17.875V11.375H16.5V13.375ZM15.5 11V12.375H17.5V11H15.5ZM16.5 14.75H17.875V12.75H16.5V14.75ZM17.5 15.125V13.75H15.5V15.125H17.5ZM17.875 14.125H16.5V16.125H17.875V14.125ZM16.875 13.75V15.125H18.875V13.75H16.875ZM17.875 7.25H16.5V9.25H17.875V7.25ZM18.875 9.625V8.25H16.875V9.625H18.875ZM16.5 10.625H17.875V8.625H16.5V10.625ZM15.5 8.25V9.625H17.5V8.25H15.5Z" fill="#E99B01" mask="url(#path-1-inside-1_201_18549)"/>
</svg>
