<svg width="20" height="20" viewBox="0 0 20 20" fill="none" xmlns="http://www.w3.org/2000/svg">
<mask id="path-1-inside-1_201_18574" fill="white">
<path fill-rule="evenodd" clip-rule="evenodd" d="M13.3837 3.75H18.125L18.75 4.375V15.625L18.125 16.25H1.875L1.25 15.625V4.375L1.875 3.75H6.61625L7.6825 2.6825L8.125 2.5H11.875L12.3175 2.6825L13.3837 3.75ZM2.5 15H17.5V5H13.125L12.6825 4.8175L11.6163 3.75H8.38375L7.3175 4.8175L6.875 5H2.5V15ZM4.375 6.25C4.25139 6.25 4.13055 6.28666 4.02777 6.35533C3.92499 6.42401 3.84488 6.52162 3.79758 6.63582C3.75027 6.75003 3.73789 6.87569 3.76201 6.99693C3.78613 7.11817 3.84565 7.22953 3.93306 7.31694C4.02047 7.40435 4.13183 7.46388 4.25307 7.48799C4.37431 7.51211 4.49997 7.49973 4.61418 7.45243C4.72838 7.40512 4.82599 7.32501 4.89467 7.22223C4.96334 7.11945 5 6.99861 5 6.875C5 6.70924 4.93415 6.55027 4.81694 6.43306C4.69973 6.31585 4.54076 6.25 4.375 6.25ZM10 7.5C10.4945 7.5 10.9778 7.64662 11.3889 7.92133C11.8 8.19603 12.1205 8.58648 12.3097 9.04329C12.4989 9.50011 12.5484 10.0028 12.452 10.4877C12.3555 10.9727 12.1174 11.4181 11.7678 11.7678C11.4181 12.1174 10.9727 12.3555 10.4877 12.452C10.0028 12.5484 9.50011 12.4989 9.04329 12.3097C8.58648 12.1205 8.19603 11.8 7.92133 11.3889C7.64662 10.9778 7.5 10.4945 7.5 10C7.5 9.33696 7.76339 8.70107 8.23223 8.23223C8.70108 7.76339 9.33696 7.5 10 7.5ZM10 6.25C9.25832 6.25 8.5333 6.46993 7.91661 6.88199C7.29993 7.29404 6.81928 7.87971 6.53545 8.56494C6.25163 9.25016 6.17736 10.0042 6.32206 10.7316C6.46675 11.459 6.8239 12.1272 7.34835 12.6517C7.8728 13.1761 8.54098 13.5333 9.26841 13.6779C9.99584 13.8226 10.7498 13.7484 11.4351 13.4645C12.1203 13.1807 12.706 12.7001 13.118 12.0834C13.5301 11.4667 13.75 10.7417 13.75 10C13.75 9.00544 13.3549 8.05161 12.6517 7.34835C11.9484 6.64509 10.9946 6.25 10 6.25Z"/>
</mask>
<path fill-rule="evenodd" clip-rule="evenodd" d="M13.3837 3.75H18.125L18.75 4.375V15.625L18.125 16.25H1.875L1.25 15.625V4.375L1.875 3.75H6.61625L7.6825 2.6825L8.125 2.5H11.875L12.3175 2.6825L13.3837 3.75ZM2.5 15H17.5V5H13.125L12.6825 4.8175L11.6163 3.75H8.38375L7.3175 4.8175L6.875 5H2.5V15ZM4.375 6.25C4.25139 6.25 4.13055 6.28666 4.02777 6.35533C3.92499 6.42401 3.84488 6.52162 3.79758 6.63582C3.75027 6.75003 3.73789 6.87569 3.76201 6.99693C3.78613 7.11817 3.84565 7.22953 3.93306 7.31694C4.02047 7.40435 4.13183 7.46388 4.25307 7.48799C4.37431 7.51211 4.49997 7.49973 4.61418 7.45243C4.72838 7.40512 4.82599 7.32501 4.89467 7.22223C4.96334 7.11945 5 6.99861 5 6.875C5 6.70924 4.93415 6.55027 4.81694 6.43306C4.69973 6.31585 4.54076 6.25 4.375 6.25ZM10 7.5C10.4945 7.5 10.9778 7.64662 11.3889 7.92133C11.8 8.19603 12.1205 8.58648 12.3097 9.04329C12.4989 9.50011 12.5484 10.0028 12.452 10.4877C12.3555 10.9727 12.1174 11.4181 11.7678 11.7678C11.4181 12.1174 10.9727 12.3555 10.4877 12.452C10.0028 12.5484 9.50011 12.4989 9.04329 12.3097C8.58648 12.1205 8.19603 11.8 7.92133 11.3889C7.64662 10.9778 7.5 10.4945 7.5 10C7.5 9.33696 7.76339 8.70107 8.23223 8.23223C8.70108 7.76339 9.33696 7.5 10 7.5ZM10 6.25C9.25832 6.25 8.5333 6.46993 7.91661 6.88199C7.29993 7.29404 6.81928 7.87971 6.53545 8.56494C6.25163 9.25016 6.17736 10.0042 6.32206 10.7316C6.46675 11.459 6.8239 12.1272 7.34835 12.6517C7.8728 13.1761 8.54098 13.5333 9.26841 13.6779C9.99584 13.8226 10.7498 13.7484 11.4351 13.4645C12.1203 13.1807 12.706 12.7001 13.118 12.0834C13.5301 11.4667 13.75 10.7417 13.75 10C13.75 9.00544 13.3549 8.05161 12.6517 7.34835C11.9484 6.64509 10.9946 6.25 10 6.25Z" fill="#E99B01"/>
<path d="M18.125 3.75L18.8321 3.04289L18.5392 2.75H18.125V3.75ZM13.3837 3.75L12.6762 4.45669L12.9692 4.75H13.3837V3.75ZM18.75 4.375H19.75V3.96079L19.4571 3.66789L18.75 4.375ZM18.75 15.625L19.4571 16.3321L19.75 16.0392V15.625H18.75ZM18.125 16.25V17.25H18.5392L18.8321 16.9571L18.125 16.25ZM1.875 16.25L1.16789 16.9571L1.46079 17.25H1.875V16.25ZM1.25 15.625H0.25V16.0392L0.542893 16.3321L1.25 15.625ZM1.25 4.375L0.542893 3.66789L0.25 3.96079V4.375H1.25ZM1.875 3.75V2.75H1.46079L1.16789 3.04289L1.875 3.75ZM6.61625 3.75V4.75H7.03081L7.32377 4.45669L6.61625 3.75ZM7.6825 2.6825L7.30122 1.75804L7.11632 1.8343L6.97498 1.97581L7.6825 2.6825ZM8.125 2.5V1.5H7.92688L7.74372 1.57554L8.125 2.5ZM11.875 2.5L12.2563 1.57554L12.0731 1.5H11.875V2.5ZM12.3175 2.6825L13.025 1.97581L12.8837 1.8343L12.6988 1.75804L12.3175 2.6825ZM17.5 15V16H18.5V15H17.5ZM2.5 15H1.5V16H2.5V15ZM17.5 5H18.5V4H17.5V5ZM13.125 5L12.7437 5.92446L12.9269 6H13.125V5ZM12.6825 4.8175L11.975 5.52419L12.1163 5.6657L12.3012 5.74196L12.6825 4.8175ZM11.6163 3.75L12.3238 3.04331L12.0308 2.75H11.6163V3.75ZM8.38375 3.75V2.75H7.96919L7.67623 3.04331L8.38375 3.75ZM7.3175 4.8175L7.69877 5.74196L7.88368 5.6657L8.02502 5.52419L7.3175 4.8175ZM6.875 5V6H7.07312L7.25627 5.92446L6.875 5ZM2.5 5V4H1.5V5H2.5ZM3.79758 6.63582L4.72146 7.01851L4.72146 7.01851L3.79758 6.63582ZM3.76201 6.99693L4.7428 6.80184L4.74279 6.80184L3.76201 6.99693ZM4.25307 7.48799L4.44816 6.50721L4.44816 6.50721L4.25307 7.48799ZM4.61418 7.45243L4.99686 8.3763L4.99686 8.3763L4.61418 7.45243ZM4.89467 7.22223L5.72614 7.7778L5.72614 7.7778L4.89467 7.22223ZM4.81694 6.43306L5.52405 5.72595L5.52405 5.72595L4.81694 6.43306ZM11.3889 7.92133L10.8334 8.7528L10.8334 8.7528L11.3889 7.92133ZM12.3097 9.04329L11.3858 9.42597V9.42598L12.3097 9.04329ZM12.452 10.4877L13.4327 10.6828V10.6828L12.452 10.4877ZM11.7678 11.7678L12.4749 12.4749L12.4749 12.4749L11.7678 11.7678ZM10.4877 12.452L10.2926 11.4712H10.2926L10.4877 12.452ZM9.04329 12.3097L9.42598 11.3858L9.42598 11.3858L9.04329 12.3097ZM8.23223 8.23223L8.93934 8.93934V8.93934L8.23223 8.23223ZM7.91661 6.88199L8.47218 7.71346L8.47218 7.71346L7.91661 6.88199ZM6.53545 8.56494L7.45933 8.94762V8.94762L6.53545 8.56494ZM6.32206 10.7316L5.34127 10.9267L6.32206 10.7316ZM7.34835 12.6517L6.64124 13.3588L6.64124 13.3588L7.34835 12.6517ZM9.26841 13.6779L9.4635 12.6972L9.26841 13.6779ZM11.4351 13.4645L11.0524 12.5407H11.0524L11.4351 13.4645ZM13.118 12.0834L12.2865 11.5278L12.2865 11.5278L13.118 12.0834ZM18.125 2.75H13.3837V4.75H18.125V2.75ZM19.4571 3.66789L18.8321 3.04289L17.4179 4.45711L18.0429 5.08211L19.4571 3.66789ZM19.75 15.625V4.375H17.75V15.625H19.75ZM18.8321 16.9571L19.4571 16.3321L18.0429 14.9179L17.4179 15.5429L18.8321 16.9571ZM1.875 17.25H18.125V15.25H1.875V17.25ZM0.542893 16.3321L1.16789 16.9571L2.58211 15.5429L1.95711 14.9179L0.542893 16.3321ZM0.25 4.375V15.625H2.25V4.375H0.25ZM1.16789 3.04289L0.542893 3.66789L1.95711 5.08211L2.58211 4.45711L1.16789 3.04289ZM6.61625 2.75H1.875V4.75H6.61625V2.75ZM6.97498 1.97581L5.90873 3.04331L7.32377 4.45669L8.39002 3.38919L6.97498 1.97581ZM7.74372 1.57554L7.30122 1.75804L8.06378 3.60696L8.50628 3.42446L7.74372 1.57554ZM11.875 1.5H8.125V3.5H11.875V1.5ZM12.6988 1.75804L12.2563 1.57554L11.4937 3.42446L11.9362 3.60696L12.6988 1.75804ZM14.0913 3.04331L13.025 1.97581L11.61 3.38919L12.6762 4.45669L14.0913 3.04331ZM17.5 14H2.5V16H17.5V14ZM16.5 5V15H18.5V5H16.5ZM13.125 6H17.5V4H13.125V6ZM12.3012 5.74196L12.7437 5.92446L13.5063 4.07554L13.0638 3.89304L12.3012 5.74196ZM10.9087 4.45669L11.975 5.52419L13.39 4.11081L12.3238 3.04331L10.9087 4.45669ZM8.38375 4.75H11.6163V2.75H8.38375V4.75ZM8.02502 5.52419L9.09127 4.45669L7.67623 3.04331L6.60998 4.11081L8.02502 5.52419ZM7.25627 5.92446L7.69877 5.74196L6.93623 3.89304L6.49373 4.07554L7.25627 5.92446ZM2.5 6H6.875V4H2.5V6ZM3.5 15V5H1.5V15H3.5ZM4.58334 7.1868C4.52167 7.22801 4.44917 7.25 4.375 7.25V5.25C4.05361 5.25 3.73943 5.3453 3.4722 5.52386L4.58334 7.1868ZM4.72146 7.01851C4.69307 7.08703 4.64501 7.1456 4.58334 7.1868L3.4722 5.52386C3.20497 5.70242 2.99669 5.95621 2.8737 6.25314L4.72146 7.01851ZM4.74279 6.80184C4.75726 6.87458 4.74984 6.94998 4.72146 7.01851L2.8737 6.25314C2.7507 6.55007 2.71852 6.8768 2.78122 7.19202L4.74279 6.80184ZM4.64016 6.60983C4.69261 6.66228 4.72833 6.7291 4.7428 6.80184L2.78122 7.19202C2.84392 7.50724 2.99869 7.79679 3.22595 8.02405L4.64016 6.60983ZM4.44816 6.50721C4.5209 6.52168 4.58772 6.55739 4.64016 6.60983L3.22595 8.02405C3.45321 8.25131 3.74276 8.40608 4.05798 8.46878L4.44816 6.50721ZM4.23149 6.52855C4.30002 6.50016 4.37542 6.49274 4.44816 6.50721L4.05798 8.46878C4.3732 8.53148 4.69993 8.4993 4.99686 8.3763L4.23149 6.52855ZM4.0632 6.66666C4.10441 6.60499 4.16297 6.55693 4.23149 6.52855L4.99686 8.3763C5.29379 8.25331 5.54758 8.04503 5.72614 7.7778L4.0632 6.66666ZM4 6.875C4 6.80083 4.02199 6.72833 4.0632 6.66666L5.72614 7.7778C5.9047 7.51057 6 7.19639 6 6.875H4ZM4.10983 7.14016C4.03951 7.06984 4 6.97446 4 6.875H6C6 6.44402 5.8288 6.0307 5.52405 5.72595L4.10983 7.14016ZM4.375 7.25C4.27554 7.25 4.18016 7.21049 4.10984 7.14017L5.52405 5.72595C5.2193 5.42121 4.80598 5.25 4.375 5.25V7.25ZM11.9445 7.08986C11.3689 6.70527 10.6922 6.5 10 6.5V8.5C10.2967 8.5 10.5867 8.58797 10.8334 8.7528L11.9445 7.08986ZM13.2336 8.66061C12.9687 8.02107 12.5201 7.47444 11.9445 7.08986L10.8334 8.7528C11.08 8.91762 11.2723 9.15189 11.3858 9.42597L13.2336 8.66061ZM13.4327 10.6828C13.5678 10.0039 13.4985 9.30015 13.2336 8.66061L11.3858 9.42598C11.4994 9.70006 11.5291 10.0017 11.4712 10.2926L13.4327 10.6828ZM12.4749 12.4749C12.9644 11.9854 13.2977 11.3618 13.4327 10.6828L11.4712 10.2926C11.4133 10.5836 11.2704 10.8509 11.0607 11.0607L12.4749 12.4749ZM10.6828 13.4327C11.3618 13.2977 11.9854 12.9644 12.4749 12.4749L11.0607 11.0607C10.8509 11.2704 10.5836 11.4133 10.2926 11.4712L10.6828 13.4327ZM8.66061 13.2336C9.30015 13.4985 10.0039 13.5678 10.6828 13.4327L10.2926 11.4712C10.0017 11.5291 9.70006 11.4994 9.42598 11.3858L8.66061 13.2336ZM7.08986 11.9445C7.47444 12.5201 8.02107 12.9687 8.66061 13.2336L9.42598 11.3858C9.15189 11.2723 8.91762 11.08 8.7528 10.8334L7.08986 11.9445ZM6.5 10C6.5 10.6922 6.70527 11.3689 7.08986 11.9445L8.7528 10.8334C8.58798 10.5867 8.5 10.2967 8.5 10H6.5ZM7.52513 7.52513C6.86875 8.1815 6.5 9.07174 6.5 10H8.5C8.5 9.60218 8.65804 9.22064 8.93934 8.93934L7.52513 7.52513ZM10 6.5C9.07174 6.5 8.18151 6.86875 7.52513 7.52513L8.93934 8.93934C9.22065 8.65804 9.60218 8.5 10 8.5V6.5ZM8.47218 7.71346C8.92442 7.41128 9.4561 7.25 10 7.25V5.25C9.06054 5.25 8.14218 5.52858 7.36104 6.05052L8.47218 7.71346ZM7.45933 8.94762C7.66747 8.44512 8.01995 8.01563 8.47218 7.71346L7.36104 6.05052C6.57991 6.57246 5.97109 7.3143 5.61157 8.18225L7.45933 8.94762ZM7.30284 10.5365C7.19673 10.0031 7.25119 9.45012 7.45933 8.94762L5.61157 8.18225C5.25206 9.0502 5.15799 10.0053 5.34127 10.9267L7.30284 10.5365ZM8.05546 11.9445C7.67086 11.5599 7.40895 11.0699 7.30284 10.5365L5.34127 10.9267C5.52455 11.8481 5.97694 12.6945 6.64124 13.3588L8.05546 11.9445ZM9.4635 12.6972C8.93006 12.5911 8.44005 12.3291 8.05546 11.9445L6.64124 13.3588C7.30554 14.0231 8.15191 14.4755 9.07332 14.6587L9.4635 12.6972ZM11.0524 12.5407C10.5499 12.7488 9.99695 12.8033 9.4635 12.6972L9.07332 14.6587C9.99473 14.842 10.9498 14.7479 11.8177 14.3884L11.0524 12.5407ZM12.2865 11.5278C11.9844 11.9801 11.5549 12.3325 11.0524 12.5407L11.8177 14.3884C12.6857 14.0289 13.4275 13.4201 13.9495 12.639L12.2865 11.5278ZM12.75 10C12.75 10.5439 12.5887 11.0756 12.2865 11.5278L13.9495 12.639C14.4714 11.8578 14.75 10.9395 14.75 10H12.75ZM11.9445 8.05546C12.4603 8.57118 12.75 9.27065 12.75 10H14.75C14.75 8.74022 14.2496 7.53204 13.3588 6.64124L11.9445 8.05546ZM10 7.25C10.7293 7.25 11.4288 7.53973 11.9445 8.05546L13.3588 6.64124C12.468 5.75044 11.2598 5.25 10 5.25V7.25Z" fill="#E99B01" mask="url(#path-1-inside-1_201_18574)"/>
</svg>
