<svg width="20" height="20" viewBox="0 0 20 20" fill="none" xmlns="http://www.w3.org/2000/svg">
<path d="M2.56593 16.7627L2.28682 17.3172L1.87389 16.9042L4.62032 12.1096L4.78129 11.8883L14.9196 1.75H15.3304L15.2339 1.84646L5.23391 11.8465L4.88036 12.2L5.23391 12.5536L7.44643 14.7661L7.79999 15.1196L8.15354 14.7661L18.1535 4.76609L18.25 4.66963V5.08037L8.11166 15.2187L7.89039 15.3797L3.09576 18.1261L2.69026 17.7206L3.24448 17.4304L6.94444 15.493L7.54699 15.1775L7.06606 14.6965L5.25362 12.8839L4.76447 12.3947L4.45344 13.0127L2.56593 16.7627ZM15.941 1.84646L15.8446 1.75H16.3304L18.25 3.66963V4.15544L18.1535 4.05898L15.941 1.84646Z" fill="black" stroke="black"/>
</svg>
