<svg width="18" height="18" viewBox="0 0 18 18" fill="none" xmlns="http://www.w3.org/2000/svg">
<path d="M16.8748 6.3675L9.20226 3.375H8.79726L1.12476 6.3675V13.5H2.24976V7.875L4.84851 8.8875C4.27445 9.705 3.96431 10.6786 3.95976 11.6775C3.94864 11.801 3.94864 11.9253 3.95976 12.0487V12.1725L4.27476 12.6225L8.75226 14.625H9.21351L13.646 12.5887L13.961 12.1388V12.0037C13.961 11.8912 13.961 11.7675 13.961 11.6438C13.9546 10.6503 13.6488 9.68191 13.0835 8.865L16.8748 7.39125V6.3675ZM12.9148 11.6325V11.7113L8.99976 13.5L5.06226 11.7C5.05699 11.6778 5.05699 11.6547 5.06226 11.6325C5.06838 10.7654 5.36551 9.92553 5.90601 9.2475L8.80851 10.3725H9.21351L12.0935 9.2475C12.6291 9.92677 12.9186 10.7675 12.9148 11.6325ZM8.99976 9.28125L2.83476 6.885L8.99976 4.5L15.1648 6.9075L8.99976 9.28125Z" fill="#424242"/>
</svg>
