<svg width="35" height="35" viewBox="0 0 35 35" fill="none" xmlns="http://www.w3.org/2000/svg">
<ellipse cx="11.6667" cy="11.6667" rx="11.6667" ry="11.6667" transform="matrix(4.37114e-08 -1 -1 -4.37114e-08 32.0834 29.1667)" fill="#E99B01"/>
<path d="M8.45004 17.5C8.45004 10.891 13.8077 5.53335 20.4167 5.53336C27.0257 5.53336 32.3834 10.891 32.3834 17.5C32.3834 24.109 27.0257 29.4667 20.4167 29.4667C13.8077 29.4667 8.45004 24.109 8.45004 17.5Z" stroke="#7E869E" stroke-opacity="0.25" stroke-width="0.6"/>
<path d="M7.18807 27.812C9.22758 29.8515 11.8261 31.2404 14.655 31.8031C17.4839 32.3658 20.4161 32.077 23.0808 30.9733C25.7456 29.8695 28.0232 28.0003 29.6256 25.6021C31.2281 23.2039 32.0834 20.3843 32.0834 17.5C32.0834 14.6157 31.2281 11.7962 29.6256 9.39796C28.0232 6.99974 25.7456 5.13056 23.0808 4.02678C20.4161 2.923 17.4839 2.6342 14.655 3.1969C11.8261 3.7596 9.22758 5.14853 7.18807 7.18804" stroke="#222222" stroke-width="1.2"/>
<path d="M21.875 17.5L22.3435 17.1252L22.6434 17.5L22.3435 17.8748L21.875 17.5ZM4.375 18.1C4.04363 18.1 3.775 17.8313 3.775 17.5C3.775 17.1686 4.04363 16.9 4.375 16.9V18.1ZM16.5102 9.8335L22.3435 17.1252L21.4065 17.8748L15.5731 10.5831L16.5102 9.8335ZM22.3435 17.8748L16.5102 25.1665L15.5731 24.4168L21.4065 17.1252L22.3435 17.8748ZM21.875 18.1H4.375V16.9H21.875V18.1Z" fill="#222222"/>
</svg>
