<svg width="20" height="20" viewBox="0 0 20 20" fill="none" xmlns="http://www.w3.org/2000/svg">
<path d="M10 2.5C10.2473 2.5 10.4889 2.57331 10.6945 2.71066C10.9001 2.84801 11.0603 3.04324 11.1549 3.27165C11.2495 3.50005 11.2743 3.75139 11.226 3.99386C11.1778 4.23634 11.0587 4.45907 10.8839 4.63388C10.7091 4.8087 10.4864 4.92775 10.2439 4.97598C10.0014 5.02421 9.7501 4.99946 9.52169 4.90485C9.29329 4.81024 9.09806 4.65002 8.96071 4.44446C8.82336 4.2389 8.75005 3.99723 8.75005 3.75C8.75005 3.41848 8.88174 3.10054 9.11616 2.86612C9.35058 2.6317 9.66853 2.5 10 2.5ZM10 1.25C9.50559 1.25 9.02225 1.39662 8.61112 1.67133C8.2 1.94603 7.87957 2.33648 7.69035 2.79329C7.50113 3.25011 7.45162 3.75277 7.54808 4.23773C7.64455 4.72268 7.88265 5.16814 8.23228 5.51777C8.58191 5.8674 9.02737 6.1055 9.51232 6.20196C9.99727 6.29843 10.4999 6.24892 10.9568 6.0597C11.4136 5.87048 11.804 5.55005 12.0787 5.13893C12.3534 4.7278 12.5 4.24445 12.5 3.75C12.5 3.08696 12.2367 2.45107 11.7678 1.98223C11.299 1.51339 10.6631 1.25 10 1.25V1.25ZM11.5375 6.8625H8.46255C7.87576 6.8625 7.313 7.0956 6.89807 7.51053C6.48315 7.92545 6.25005 8.48821 6.25005 9.075V12.375C6.23639 12.7223 6.35977 13.0611 6.5936 13.3184C6.82743 13.5756 7.15298 13.7306 7.50005 13.75V16.6625C7.50005 17.0603 7.65808 17.4419 7.93939 17.7232C8.22069 18.0045 8.60222 18.1625 9.00005 18.1625H11C11.2013 18.1626 11.4005 18.1222 11.5859 18.0437C11.7712 17.9652 11.9388 17.8503 12.0788 17.7056C12.2187 17.561 12.3282 17.3897 12.4005 17.2019C12.4729 17.0141 12.5068 16.8137 12.5 16.6125V13.75C12.8471 13.7306 13.1727 13.5756 13.4065 13.3184C13.6403 13.0611 13.7637 12.7223 13.75 12.375V9.075C13.75 8.48821 13.5169 7.92545 13.102 7.51053C12.6871 7.0956 12.1243 6.8625 11.5375 6.8625ZM7.50005 12.5V9.075C7.49837 8.94814 7.52212 8.82222 7.56989 8.70469C7.61767 8.58715 7.6885 8.48038 7.77821 8.39067C7.86793 8.30095 7.9747 8.23012 8.09224 8.18234C8.20977 8.13457 8.33569 8.11082 8.46255 8.1125H11.5375C11.6644 8.11082 11.7903 8.13457 11.9079 8.18234C12.0254 8.23012 12.1322 8.30095 12.2219 8.39067C12.3116 8.48038 12.3824 8.58715 12.4302 8.70469C12.478 8.82222 12.5017 8.94814 12.5 9.075V12.5H11.25V16.6375C11.25 16.7038 11.2237 16.7674 11.1768 16.8143C11.1299 16.8612 11.0664 16.8875 11 16.8875H9.00005C8.93374 16.8875 8.87016 16.8612 8.82327 16.8143C8.77639 16.7674 8.75005 16.7038 8.75005 16.6375V12.5H7.50005Z" fill="#424242"/>
</svg>
