<svg width="26" height="25" viewBox="0 0 26 25" fill="none" xmlns="http://www.w3.org/2000/svg">
<mask id="path-1-inside-1_353_2145" fill="white">
<path fill-rule="evenodd" clip-rule="evenodd" d="M13.675 0.568726L25.6 11.4437L24.2688 12.775L22.3751 11.0577V23.2938L21.4376 24.2313H15.8126L14.8751 23.2938V16.7313H11.1251V23.2938L10.1876 24.2313H4.56257L3.62507 23.2938L3.62506 11.0718L1.75007 12.775L0.418823 11.4437L12.325 0.568726H12.3438H13.6563H13.675ZM5.50007 9.36871V22.3563H9.25007V15.7938L10.1876 14.8563H15.8126L16.7501 15.7938V22.3563H20.5001V9.3574L13 2.55623L5.50007 9.36871Z"/>
</mask>
<path fill-rule="evenodd" clip-rule="evenodd" d="M13.675 0.568726L25.6 11.4437L24.2688 12.775L22.3751 11.0577V23.2938L21.4376 24.2313H15.8126L14.8751 23.2938V16.7313H11.1251V23.2938L10.1876 24.2313H4.56257L3.62507 23.2938L3.62506 11.0718L1.75007 12.775L0.418823 11.4437L12.325 0.568726H12.3438H13.6563H13.675ZM5.50007 9.36871V22.3563H9.25007V15.7938L10.1876 14.8563H15.8126L16.7501 15.7938V22.3563H20.5001V9.3574L13 2.55623L5.50007 9.36871Z" fill="black"/>
<path d="M25.6 11.4437L26.3072 12.1508L27.0476 11.4104L26.2739 10.7048L25.6 11.4437ZM13.675 0.568726L14.3489 -0.170163L14.0626 -0.431274H13.675V0.568726ZM24.2688 12.775L23.597 13.5157L24.3025 14.1555L24.9759 13.4821L24.2688 12.775ZM22.3751 11.0577L23.0468 10.3169L21.3751 8.80094V11.0577H22.3751ZM22.3751 23.2938L23.0822 24.0009L23.3751 23.708V23.2938H22.3751ZM21.4376 24.2313V25.2313H21.8518L22.1447 24.9384L21.4376 24.2313ZM15.8126 24.2313L15.1055 24.9384L15.3984 25.2313H15.8126V24.2313ZM14.8751 23.2938H13.8751V23.708L14.168 24.0009L14.8751 23.2938ZM14.8751 16.7313H15.8751V15.7313H14.8751V16.7313ZM11.1251 16.7313V15.7313H10.1251V16.7313H11.1251ZM11.1251 23.2938L11.8322 24.0009L12.1251 23.708V23.2938H11.1251ZM10.1876 24.2313V25.2313H10.6018L10.8947 24.9384L10.1876 24.2313ZM4.56257 24.2313L3.85546 24.9384L4.14836 25.2313H4.56257V24.2313ZM3.62507 23.2938L2.62507 23.2938L2.62507 23.708L2.91796 24.0009L3.62507 23.2938ZM3.62506 11.0718L4.62506 11.0718L4.62506 8.81256L2.95269 10.3316L3.62506 11.0718ZM1.75007 12.775L1.04297 13.4821L1.71692 14.156L2.42244 13.5152L1.75007 12.775ZM0.418823 11.4437L-0.255584 10.7054L-1.02812 11.411L-0.288284 12.1508L0.418823 11.4437ZM12.325 0.568726V-0.431274H11.9371L11.6506 -0.169634L12.325 0.568726ZM5.50007 9.36871L4.8277 8.62849L4.50007 8.92609V9.36871H5.50007ZM5.50007 22.3563H4.50007V23.3563H5.50007V22.3563ZM9.25007 22.3563V23.3563H10.2501V22.3563H9.25007ZM9.25007 15.7938L8.54296 15.0867L8.25007 15.3795V15.7938H9.25007ZM10.1876 14.8563V13.8563H9.77336L9.48046 14.1492L10.1876 14.8563ZM15.8126 14.8563L16.5197 14.1492L16.2268 13.8563H15.8126V14.8563ZM16.7501 15.7938H17.7501V15.3795L17.4572 15.0867L16.7501 15.7938ZM16.7501 22.3563H15.7501V23.3563H16.7501V22.3563ZM20.5001 22.3563V23.3563H21.5001V22.3563H20.5001ZM20.5001 9.3574H21.5001V8.91429L21.1718 8.61663L20.5001 9.3574ZM13 2.55623L13.6718 1.81545L12.9995 1.20578L12.3277 1.81601L13 2.55623ZM26.2739 10.7048L14.3489 -0.170163L13.0012 1.30761L24.9262 12.1826L26.2739 10.7048ZM24.9759 13.4821L26.3072 12.1508L24.8929 10.7366L23.5617 12.0679L24.9759 13.4821ZM21.7033 11.7985L23.597 13.5157L24.9405 12.0342L23.0468 10.3169L21.7033 11.7985ZM21.3751 11.0577V23.2938H23.3751V11.0577H21.3751ZM21.668 22.5867L20.7305 23.5242L22.1447 24.9384L23.0822 24.0009L21.668 22.5867ZM21.4376 23.2313H15.8126V25.2313H21.4376V23.2313ZM16.5197 23.5242L15.5822 22.5867L14.168 24.0009L15.1055 24.9384L16.5197 23.5242ZM15.8751 23.2938V16.7313H13.8751V23.2938H15.8751ZM14.8751 15.7313H11.1251V17.7313H14.8751V15.7313ZM10.1251 16.7313V23.2938H12.1251V16.7313H10.1251ZM10.418 22.5867L9.48046 23.5242L10.8947 24.9384L11.8322 24.0009L10.418 22.5867ZM10.1876 23.2313H4.56257V25.2313H10.1876V23.2313ZM5.26968 23.5242L4.33218 22.5867L2.91796 24.0009L3.85546 24.9384L5.26968 23.5242ZM4.62507 23.2938L4.62506 11.0718L2.62506 11.0718L2.62507 23.2938L4.62507 23.2938ZM2.42244 13.5152L4.29742 11.8121L2.95269 10.3316L1.07771 12.0347L2.42244 13.5152ZM-0.288284 12.1508L1.04297 13.4821L2.45718 12.0679L1.12593 10.7366L-0.288284 12.1508ZM11.6506 -0.169634L-0.255584 10.7054L1.09323 12.1821L12.9995 1.30708L11.6506 -0.169634ZM12.3438 -0.431274H12.325V1.56873H12.3438V-0.431274ZM13.6563 -0.431274H12.3438V1.56873H13.6563V-0.431274ZM13.675 -0.431274H13.6563V1.56873H13.675V-0.431274ZM4.50007 9.36871V22.3563H6.50007V9.36871H4.50007ZM5.50007 23.3563H9.25007V21.3563H5.50007V23.3563ZM10.2501 22.3563V15.7938H8.25007V22.3563H10.2501ZM9.95718 16.5009L10.8947 15.5634L9.48046 14.1492L8.54296 15.0867L9.95718 16.5009ZM10.1876 15.8563H15.8126V13.8563H10.1876V15.8563ZM15.1055 15.5634L16.043 16.5009L17.4572 15.0867L16.5197 14.1492L15.1055 15.5634ZM15.7501 15.7938V22.3563H17.7501V15.7938H15.7501ZM16.7501 23.3563H20.5001V21.3563H16.7501V23.3563ZM21.5001 22.3563V9.3574H19.5001V22.3563H21.5001ZM12.3283 3.297L19.8283 10.0982L21.1718 8.61663L13.6718 1.81545L12.3283 3.297ZM6.17244 10.1089L13.6724 3.29644L12.3277 1.81601L4.8277 8.62849L6.17244 10.1089Z" fill="black" mask="url(#path-1-inside-1_353_2145)"/>
</svg>
