<svg width="30" height="30" viewBox="0 0 30 30" fill="none" xmlns="http://www.w3.org/2000/svg">
<rect width="30" height="30" rx="15" fill="#E99B01" fill-opacity="0.5"/>
<mask id="path-2-inside-1_209_19482" fill="white">
<path fill-rule="evenodd" clip-rule="evenodd" d="M15.675 2.56873L27.6 13.4437L26.2688 14.775L24.3751 13.0577V25.2938L23.4376 26.2313H17.8126L16.8751 25.2938V18.7313H13.1251V25.2938L12.1876 26.2313H6.56257L5.62507 25.2938L5.62506 13.0718L3.75007 14.775L2.41882 13.4437L14.325 2.56873H14.3438H15.6563H15.675ZM7.50007 11.3687V24.3563H11.2501V17.7938L12.1876 16.8563H17.8126L18.7501 17.7938V24.3563H22.5001V11.3574L15 4.55623L7.50007 11.3687Z"/>
</mask>
<path fill-rule="evenodd" clip-rule="evenodd" d="M15.675 2.56873L27.6 13.4437L26.2688 14.775L24.3751 13.0577V25.2938L23.4376 26.2313H17.8126L16.8751 25.2938V18.7313H13.1251V25.2938L12.1876 26.2313H6.56257L5.62507 25.2938L5.62506 13.0718L3.75007 14.775L2.41882 13.4437L14.325 2.56873H14.3438H15.6563H15.675ZM7.50007 11.3687V24.3563H11.2501V17.7938L12.1876 16.8563H17.8126L18.7501 17.7938V24.3563H22.5001V11.3574L15 4.55623L7.50007 11.3687Z" fill="black"/>
<path d="M27.6 13.4437L28.3071 14.1508L29.0476 13.4104L28.2739 12.7048L27.6 13.4437ZM15.675 2.56873L16.3489 1.82984L16.0626 1.56873H15.675V2.56873ZM26.2688 14.775L25.597 15.5157L26.3025 16.1555L26.9759 15.4821L26.2688 14.775ZM24.3751 13.0577L25.0468 12.3169L23.3751 10.8009V13.0577H24.3751ZM24.3751 25.2938L25.0822 26.0009L25.3751 25.708V25.2938H24.3751ZM23.4376 26.2313V27.2313H23.8518L24.1447 26.9384L23.4376 26.2313ZM17.8126 26.2313L17.1055 26.9384L17.3984 27.2313H17.8126V26.2313ZM16.8751 25.2938H15.8751V25.708L16.168 26.0009L16.8751 25.2938ZM16.8751 18.7313H17.8751V17.7313H16.8751V18.7313ZM13.1251 18.7313V17.7313H12.1251V18.7313H13.1251ZM13.1251 25.2938L13.8322 26.0009L14.1251 25.708V25.2938H13.1251ZM12.1876 26.2313V27.2313H12.6018L12.8947 26.9384L12.1876 26.2313ZM6.56257 26.2313L5.85546 26.9384L6.14836 27.2313H6.56257V26.2313ZM5.62507 25.2938L4.62507 25.2938L4.62507 25.708L4.91796 26.0009L5.62507 25.2938ZM5.62506 13.0718L6.62506 13.0718L6.62506 10.8126L4.95269 12.3316L5.62506 13.0718ZM3.75007 14.775L3.04297 15.4821L3.71692 16.156L4.42244 15.5152L3.75007 14.775ZM2.41882 13.4437L1.74442 12.7054L0.971877 13.411L1.71172 14.1508L2.41882 13.4437ZM14.325 2.56873V1.56873H13.9371L13.6506 1.83037L14.325 2.56873ZM7.50007 11.3687L6.8277 10.6285L6.50007 10.9261V11.3687H7.50007ZM7.50007 24.3563H6.50007V25.3563H7.50007V24.3563ZM11.2501 24.3563V25.3563H12.2501V24.3563H11.2501ZM11.2501 17.7938L10.543 17.0867L10.2501 17.3795V17.7938H11.2501ZM12.1876 16.8563V15.8563H11.7734L11.4805 16.1492L12.1876 16.8563ZM17.8126 16.8563L18.5197 16.1492L18.2268 15.8563H17.8126V16.8563ZM18.7501 17.7938H19.7501V17.3795L19.4572 17.0867L18.7501 17.7938ZM18.7501 24.3563H17.7501V25.3563H18.7501V24.3563ZM22.5001 24.3563V25.3563H23.5001V24.3563H22.5001ZM22.5001 11.3574H23.5001V10.9143L23.1718 10.6166L22.5001 11.3574ZM15 4.55623L15.6718 3.81545L14.9995 3.20578L14.3277 3.81601L15 4.55623ZM28.2739 12.7048L16.3489 1.82984L15.0012 3.30761L26.9262 14.1826L28.2739 12.7048ZM26.9759 15.4821L28.3071 14.1508L26.8929 12.7366L25.5617 14.0679L26.9759 15.4821ZM23.7033 13.7985L25.597 15.5157L26.9405 14.0342L25.0468 12.3169L23.7033 13.7985ZM23.3751 13.0577V25.2938H25.3751V13.0577H23.3751ZM23.668 24.5867L22.7305 25.5242L24.1447 26.9384L25.0822 26.0009L23.668 24.5867ZM23.4376 25.2313H17.8126V27.2313H23.4376V25.2313ZM18.5197 25.5242L17.5822 24.5867L16.168 26.0009L17.1055 26.9384L18.5197 25.5242ZM17.8751 25.2938V18.7313H15.8751V25.2938H17.8751ZM16.8751 17.7313H13.1251V19.7313H16.8751V17.7313ZM12.1251 18.7313V25.2938H14.1251V18.7313H12.1251ZM12.418 24.5867L11.4805 25.5242L12.8947 26.9384L13.8322 26.0009L12.418 24.5867ZM12.1876 25.2313H6.56257V27.2313H12.1876V25.2313ZM7.26968 25.5242L6.33218 24.5867L4.91796 26.0009L5.85546 26.9384L7.26968 25.5242ZM6.62507 25.2938L6.62506 13.0718L4.62506 13.0718L4.62507 25.2938L6.62507 25.2938ZM4.42244 15.5152L6.29742 13.8121L4.95269 12.3316L3.07771 14.0347L4.42244 15.5152ZM1.71172 14.1508L3.04297 15.4821L4.45718 14.0679L3.12593 12.7366L1.71172 14.1508ZM13.6506 1.83037L1.74442 12.7054L3.09323 14.1821L14.9995 3.30708L13.6506 1.83037ZM14.3438 1.56873H14.325V3.56873H14.3438V1.56873ZM15.6563 1.56873H14.3438V3.56873H15.6563V1.56873ZM15.675 1.56873H15.6563V3.56873H15.675V1.56873ZM6.50007 11.3687V24.3563H8.50007V11.3687H6.50007ZM7.50007 25.3563H11.2501V23.3563H7.50007V25.3563ZM12.2501 24.3563V17.7938H10.2501V24.3563H12.2501ZM11.9572 18.5009L12.8947 17.5634L11.4805 16.1492L10.543 17.0867L11.9572 18.5009ZM12.1876 17.8563H17.8126V15.8563H12.1876V17.8563ZM17.1055 17.5634L18.043 18.5009L19.4572 17.0867L18.5197 16.1492L17.1055 17.5634ZM17.7501 17.7938V24.3563H19.7501V17.7938H17.7501ZM18.7501 25.3563H22.5001V23.3563H18.7501V25.3563ZM23.5001 24.3563V11.3574H21.5001V24.3563H23.5001ZM14.3283 5.297L21.8283 12.0982L23.1718 10.6166L15.6718 3.81545L14.3283 5.297ZM8.17244 12.1089L15.6724 5.29644L14.3277 3.81601L6.8277 10.6285L8.17244 12.1089Z" fill="black" mask="url(#path-2-inside-1_209_19482)"/>
</svg>
