<svg width="20" height="20" viewBox="0 0 20 20" fill="none" xmlns="http://www.w3.org/2000/svg">
<mask id="path-1-inside-1_201_18548" fill="white">
<path fill-rule="evenodd" clip-rule="evenodd" d="M13.5409 3.35949C12.6071 2.42571 11.3458 1.89311 10.0254 1.875H9.97536C8.65491 1.89311 7.39364 2.42571 6.45985 3.35949C5.52607 4.29328 4.99347 5.55455 4.97536 6.875C4.95858 7.81285 5.22236 8.73434 5.73286 9.52125L9.66718 17.5H10.3335L14.2679 9.52125C14.7784 8.73434 15.0421 7.81285 15.0254 6.875C15.0073 5.55455 14.4747 4.29328 13.5409 3.35949ZM9.90536 3.125L10.0079 3.1375L10.1004 3.125C11.0823 3.16777 12.0106 3.58508 12.6943 4.29116C13.3781 4.99724 13.7654 5.93843 13.7766 6.92125C13.7861 7.61878 13.5824 8.30258 13.1929 8.88125L13.1679 8.92375L13.1466 8.9675L10.0004 15.3488L6.85411 8.97375L6.83286 8.925L6.80786 8.8825C6.41829 8.30383 6.21463 7.62003 6.22411 6.9225C6.23477 5.93854 6.62252 4.99616 7.30743 4.28962C7.99234 3.58309 8.92221 3.16624 9.90536 3.125ZM10.6697 5.83566C10.4641 5.69831 10.2224 5.625 9.97522 5.625C9.6437 5.625 9.32576 5.7567 9.09134 5.99112C8.85692 6.22554 8.72522 6.54348 8.72522 6.875C8.72522 7.12223 8.79853 7.3639 8.93588 7.56946C9.07324 7.77502 9.26846 7.93524 9.49687 8.02985C9.72528 8.12446 9.97661 8.14921 10.2191 8.10098C10.4616 8.05275 10.6843 7.9337 10.8591 7.75888C11.0339 7.58407 11.153 7.36134 11.2012 7.11886C11.2494 6.87639 11.2247 6.62505 11.1301 6.39665C11.0355 6.16824 10.8752 5.97301 10.6697 5.83566ZM8.5863 4.79633C8.99742 4.52162 9.48077 4.375 9.97522 4.375C10.6383 4.375 11.2741 4.63839 11.743 5.10723C12.2118 5.57607 12.4752 6.21196 12.4752 6.875C12.4752 7.36945 12.3286 7.8528 12.0539 8.26393C11.7792 8.67505 11.3887 8.99548 10.9319 9.1847C10.4751 9.37392 9.97245 9.42343 9.4875 9.32696C9.00254 9.2305 8.55709 8.9924 8.20745 8.64277C7.85782 8.29314 7.61972 7.84768 7.52326 7.36273C7.42679 6.87777 7.4763 6.37511 7.66552 5.91829C7.85474 5.46148 8.17517 5.07103 8.5863 4.79633Z"/>
</mask>
<path fill-rule="evenodd" clip-rule="evenodd" d="M13.5409 3.35949C12.6071 2.42571 11.3458 1.89311 10.0254 1.875H9.97536C8.65491 1.89311 7.39364 2.42571 6.45985 3.35949C5.52607 4.29328 4.99347 5.55455 4.97536 6.875C4.95858 7.81285 5.22236 8.73434 5.73286 9.52125L9.66718 17.5H10.3335L14.2679 9.52125C14.7784 8.73434 15.0421 7.81285 15.0254 6.875C15.0073 5.55455 14.4747 4.29328 13.5409 3.35949ZM9.90536 3.125L10.0079 3.1375L10.1004 3.125C11.0823 3.16777 12.0106 3.58508 12.6943 4.29116C13.3781 4.99724 13.7654 5.93843 13.7766 6.92125C13.7861 7.61878 13.5824 8.30258 13.1929 8.88125L13.1679 8.92375L13.1466 8.9675L10.0004 15.3488L6.85411 8.97375L6.83286 8.925L6.80786 8.8825C6.41829 8.30383 6.21463 7.62003 6.22411 6.9225C6.23477 5.93854 6.62252 4.99616 7.30743 4.28962C7.99234 3.58309 8.92221 3.16624 9.90536 3.125ZM10.6697 5.83566C10.4641 5.69831 10.2224 5.625 9.97522 5.625C9.6437 5.625 9.32576 5.7567 9.09134 5.99112C8.85692 6.22554 8.72522 6.54348 8.72522 6.875C8.72522 7.12223 8.79853 7.3639 8.93588 7.56946C9.07324 7.77502 9.26846 7.93524 9.49687 8.02985C9.72528 8.12446 9.97661 8.14921 10.2191 8.10098C10.4616 8.05275 10.6843 7.9337 10.8591 7.75888C11.0339 7.58407 11.153 7.36134 11.2012 7.11886C11.2494 6.87639 11.2247 6.62505 11.1301 6.39665C11.0355 6.16824 10.8752 5.97301 10.6697 5.83566ZM8.5863 4.79633C8.99742 4.52162 9.48077 4.375 9.97522 4.375C10.6383 4.375 11.2741 4.63839 11.743 5.10723C12.2118 5.57607 12.4752 6.21196 12.4752 6.875C12.4752 7.36945 12.3286 7.8528 12.0539 8.26393C11.7792 8.67505 11.3887 8.99548 10.9319 9.1847C10.4751 9.37392 9.97245 9.42343 9.4875 9.32696C9.00254 9.2305 8.55709 8.9924 8.20745 8.64277C7.85782 8.29314 7.61972 7.84768 7.52326 7.36273C7.42679 6.87777 7.4763 6.37511 7.66552 5.91829C7.85474 5.46148 8.17517 5.07103 8.5863 4.79633Z" fill="#E99B01"/>
<path d="M10.0254 1.875L10.0391 0.875H10.0254V1.875ZM13.5409 3.35949L12.8338 4.0666L12.8338 4.0666L13.5409 3.35949ZM9.97536 1.875V0.874906L9.96165 0.875094L9.97536 1.875ZM6.45985 3.35949L5.75275 2.65238L5.75275 2.65239L6.45985 3.35949ZM4.97536 6.875L5.97521 6.89289L5.97527 6.88871L4.97536 6.875ZM5.73286 9.52125L6.62975 9.07899L6.60377 9.0263L6.57179 8.97701L5.73286 9.52125ZM9.66718 17.5L8.77029 17.9423L9.04531 18.5H9.66718V17.5ZM10.3335 17.5V18.5H10.9554L11.2304 17.9423L10.3335 17.5ZM14.2679 9.52125L13.4289 8.97701L13.397 9.0263L13.371 9.07899L14.2679 9.52125ZM15.0254 6.875L14.0254 6.88871L14.0255 6.89289L15.0254 6.875ZM10.0079 3.1375L9.88681 4.13015L10.0144 4.14571L10.1418 4.12849L10.0079 3.1375ZM9.90536 3.125L10.0264 2.13235L9.9452 2.12245L9.86346 2.12588L9.90536 3.125ZM10.1004 3.125L10.1439 2.12595L10.0548 2.12207L9.96644 2.13401L10.1004 3.125ZM12.6943 4.29116L11.976 4.98682L11.976 4.98682L12.6943 4.29116ZM13.7766 6.92125L12.7767 6.93266L12.7767 6.93484L13.7766 6.92125ZM13.1929 8.88125L12.3633 8.32279L12.3463 8.34803L12.3309 8.37426L13.1929 8.88125ZM13.1679 8.92375L12.3059 8.41676L12.2857 8.45106L12.2684 8.48685L13.1679 8.92375ZM13.1466 8.9675L14.0435 9.40972L14.0461 9.4044L13.1466 8.9675ZM10.0004 15.3488L9.10363 15.7913L10.0008 17.6092L10.8973 15.791L10.0004 15.3488ZM6.85411 8.97375L5.93742 9.37334L5.94689 9.39506L5.95738 9.41632L6.85411 8.97375ZM6.83286 8.925L7.74956 8.52541L7.72542 8.47005L7.6948 8.41799L6.83286 8.925ZM6.80786 8.8825L7.6698 8.37549L7.65438 8.34927L7.63739 8.32404L6.80786 8.8825ZM6.22411 6.9225L7.22402 6.9361L7.22405 6.93333L6.22411 6.9225ZM7.30743 4.28962L8.02544 4.98566L8.02544 4.98565L7.30743 4.28962ZM10.6697 5.83566L11.2253 5.00419L11.2253 5.00419L10.6697 5.83566ZM9.09134 5.99112L9.79844 6.69822L9.79844 6.69822L9.09134 5.99112ZM8.93588 7.56946L9.76735 7.01389V7.01389L8.93588 7.56946ZM10.2191 8.10098L10.024 7.1202H10.024L10.2191 8.10098ZM10.8591 7.75888L11.5662 8.46599L11.5662 8.46599L10.8591 7.75888ZM11.2012 7.11886L12.182 7.31395V7.31395L11.2012 7.11886ZM11.1301 6.39665L12.054 6.01396V6.01396L11.1301 6.39665ZM8.5863 4.79633L9.14187 5.6278L9.14187 5.6278L8.5863 4.79633ZM11.743 5.10723L11.0359 5.81434L11.0359 5.81434L11.743 5.10723ZM12.0539 8.26393L11.2224 7.70835V7.70836L12.0539 8.26393ZM10.9319 9.1847L11.3146 10.1086H11.3146L10.9319 9.1847ZM8.20745 8.64277L8.91456 7.93566L8.91456 7.93566L8.20745 8.64277ZM7.52326 7.36273L8.50404 7.16764L8.50404 7.16763L7.52326 7.36273ZM7.66552 5.91829L8.5894 6.30098L8.5894 6.30097L7.66552 5.91829ZM10.0117 2.87491C11.0717 2.88944 12.0842 3.31699 12.8338 4.0666L14.248 2.65239C13.13 1.53442 11.62 0.896774 10.0391 0.875094L10.0117 2.87491ZM9.97536 2.875H10.0254V0.875H9.97536V2.875ZM7.16696 4.0666C7.91657 3.31699 8.92907 2.88944 9.98908 2.87491L9.96165 0.875094C8.38076 0.896774 6.87071 1.53442 5.75275 2.65238L7.16696 4.0666ZM5.97527 6.88871C5.98981 5.82871 6.41736 4.81621 7.16696 4.0666L5.75275 2.65239C4.63478 3.77035 3.99714 5.2804 3.97546 6.86129L5.97527 6.88871ZM6.57179 8.97701C6.16973 8.35725 5.96199 7.63152 5.9752 6.89289L3.97552 6.85711C3.95518 7.99419 4.27499 9.11142 4.89394 10.0655L6.57179 8.97701ZM10.5641 17.0577L6.62975 9.07899L4.83597 9.9635L8.77029 17.9423L10.5641 17.0577ZM10.3335 16.5H9.66718V18.5H10.3335V16.5ZM13.371 9.07899L9.43666 17.0577L11.2304 17.9423L15.1648 9.9635L13.371 9.07899ZM14.0255 6.89289C14.0387 7.63152 13.831 8.35725 13.4289 8.97701L15.1068 10.0655C15.7257 9.11142 16.0455 7.99419 16.0252 6.85711L14.0255 6.89289ZM12.8338 4.0666C13.5834 4.81621 14.0109 5.82871 14.0255 6.88871L16.0253 6.86129C16.0036 5.2804 15.3659 3.77035 14.248 2.65239L12.8338 4.0666ZM10.1289 2.14485L10.0264 2.13235L9.78431 4.11765L9.88681 4.13015L10.1289 2.14485ZM9.96644 2.13401L9.87394 2.14651L10.1418 4.12849L10.2343 4.11599L9.96644 2.13401ZM13.4127 3.5955C12.5511 2.70573 11.3813 2.17984 10.1439 2.12595L10.0569 4.12405C10.7833 4.15569 11.4701 4.46444 11.976 4.98682L13.4127 3.5955ZM14.7765 6.90984C14.7624 5.67132 14.2744 4.48527 13.4127 3.5955L11.976 4.98682C12.4818 5.5092 12.7684 6.20553 12.7767 6.93266L14.7765 6.90984ZM14.0224 9.43971C14.5257 8.69214 14.7888 7.80876 14.7765 6.90766L12.7767 6.93484C12.7834 7.42879 12.6392 7.91301 12.3633 8.32279L14.0224 9.43971ZM14.0298 9.43074L14.0548 9.38824L12.3309 8.37426L12.3059 8.41676L14.0298 9.43074ZM14.0461 9.4044L14.0674 9.36065L12.2684 8.48685L12.2471 8.5306L14.0461 9.4044ZM10.8973 15.791L14.0435 9.40972L12.2497 8.52528L9.10346 14.9065L10.8973 15.791ZM5.95738 9.41632L9.10363 15.7913L10.8971 14.9062L7.75085 8.53118L5.95738 9.41632ZM5.91617 9.32459L5.93742 9.37334L7.77081 8.57416L7.74956 8.52541L5.91617 9.32459ZM5.94592 9.38951L5.97092 9.43201L7.6948 8.41799L7.6698 8.37549L5.94592 9.38951ZM5.22421 6.90891C5.21195 7.81001 5.47505 8.69339 5.97833 9.44096L7.63739 8.32404C7.36152 7.91426 7.21731 7.43004 7.22402 6.9361L5.22421 6.90891ZM6.58942 3.59359C5.72626 4.484 5.23761 5.67163 5.22417 6.91167L7.22405 6.93333C7.23194 6.20544 7.51878 5.50832 8.02544 4.98566L6.58942 3.59359ZM9.86346 2.12588C8.62444 2.17785 7.45257 2.70318 6.58942 3.59359L8.02544 4.98565C8.5321 4.46299 9.21998 4.15463 9.94727 4.12412L9.86346 2.12588ZM9.97522 6.625C10.0247 6.625 10.073 6.63966 10.1141 6.66713L11.2253 5.00419C10.8552 4.75696 10.4202 4.625 9.97522 4.625V6.625ZM9.79844 6.69822C9.84533 6.65134 9.90892 6.625 9.97522 6.625V4.625C9.37848 4.625 8.80619 4.86205 8.38423 5.28401L9.79844 6.69822ZM9.72522 6.875C9.72522 6.8087 9.75156 6.74511 9.79844 6.69822L8.38423 5.28401C7.96227 5.70597 7.72522 6.27826 7.72522 6.875H9.72522ZM9.76735 7.01389C9.73988 6.97278 9.72522 6.92444 9.72522 6.875H7.72522C7.72522 7.32001 7.85718 7.75502 8.10441 8.12503L9.76735 7.01389ZM9.87955 7.10597C9.83387 7.08705 9.79482 7.055 9.76735 7.01389L8.10441 8.12503C8.35165 8.49504 8.70305 8.78343 9.11418 8.95373L9.87955 7.10597ZM10.024 7.1202C9.9755 7.12984 9.92523 7.12489 9.87955 7.10597L9.11418 8.95373C9.52532 9.12403 9.97772 9.16858 10.4142 9.08177L10.024 7.1202ZM10.152 7.05178C10.117 7.08674 10.0725 7.11055 10.024 7.1202L10.4142 9.08177C10.8506 8.99495 11.2515 8.78066 11.5662 8.46599L10.152 7.05178ZM10.2204 6.92377C10.2108 6.97227 10.187 7.01681 10.152 7.05178L11.5662 8.46599C11.8809 8.15132 12.0952 7.75041 12.182 7.31395L10.2204 6.92377ZM10.2062 6.77933C10.2251 6.82501 10.2301 6.87528 10.2204 6.92377L12.182 7.31395C12.2688 6.8775 12.2242 6.4251 12.054 6.01396L10.2062 6.77933ZM10.1141 6.66713C10.1552 6.6946 10.1873 6.73365 10.2062 6.77933L12.054 6.01396C11.8837 5.60283 11.5953 5.25143 11.2253 5.00419L10.1141 6.66713ZM9.97522 3.375C9.28299 3.375 8.6063 3.58027 8.03073 3.96486L9.14187 5.6278C9.38854 5.46297 9.67855 5.375 9.97522 5.375V3.375ZM12.4501 4.40013C11.7937 3.74375 10.9035 3.375 9.97522 3.375V5.375C10.373 5.375 10.7546 5.53304 11.0359 5.81434L12.4501 4.40013ZM13.4752 6.875C13.4752 5.94674 13.1065 5.0565 12.4501 4.40013L11.0359 5.81434C11.3172 6.09564 11.4752 6.47717 11.4752 6.875H13.4752ZM12.8854 8.8195C13.27 8.24392 13.4752 7.56723 13.4752 6.875H11.4752C11.4752 7.17167 11.3872 7.46168 11.2224 7.70835L12.8854 8.8195ZM11.3146 10.1086C11.9542 9.84367 12.5008 9.39507 12.8854 8.8195L11.2224 7.70836C11.0576 7.95503 10.8233 8.14729 10.5492 8.26082L11.3146 10.1086ZM9.2924 10.3077C9.97134 10.4428 10.6751 10.3735 11.3146 10.1086L10.5492 8.26082C10.2752 8.37435 9.97356 8.40406 9.68259 8.34618L9.2924 10.3077ZM7.50035 9.34987C7.98983 9.83936 8.61347 10.1727 9.2924 10.3077L9.68259 8.34618C9.39161 8.2883 9.12434 8.14544 8.91456 7.93566L7.50035 9.34987ZM6.54247 7.55782C6.67752 8.23675 7.01086 8.86039 7.50035 9.34987L8.91456 7.93566C8.70478 7.72588 8.56192 7.45861 8.50404 7.16764L6.54247 7.55782ZM6.74164 5.53561C6.47674 6.17515 6.40742 6.87888 6.54247 7.55782L8.50404 7.16763C8.44617 6.87666 8.47587 6.57506 8.5894 6.30098L6.74164 5.53561ZM8.03073 3.96486C7.45515 4.34944 7.00655 4.89607 6.74164 5.53561L8.5894 6.30097C8.70293 6.02689 8.89519 5.79262 9.14187 5.6278L8.03073 3.96486Z" fill="#E99B01" mask="url(#path-1-inside-1_201_18548)"/>
</svg>
