<svg width="25" height="25" viewBox="0 0 25 25" fill="none" xmlns="http://www.w3.org/2000/svg">
<path d="M18.25 10.9375V11.4375H18.75H20.1054L20.6679 12H20.3125H4.6875H4.33211L4.89461 11.4375H6.25H6.75V10.9375V7.8125C6.75 6.28751 7.35579 4.82507 8.43413 3.74673C9.51248 2.66838 10.975 2.0625 12.5 2.0625C14.025 2.0625 15.4875 2.66838 16.5659 3.74673C17.6442 4.82507 18.25 6.28751 18.25 7.8125V10.9375ZM20.8125 12.5V12.1446L21.375 12.7071V21.6679L20.8125 22.2304V21.875V12.5ZM20.3125 22.375H20.6679L20.1054 22.9375H4.89461L4.33211 22.375H4.6875H20.3125ZM4.1875 21.875V22.2304L3.625 21.6679V12.7071L4.1875 12.1446V12.5V21.875ZM17.1875 11.4375H17.6875V10.9375V7.8125C17.6875 6.4367 17.141 5.11721 16.1681 4.14436C15.1953 3.1715 13.8758 2.625 12.5 2.625C11.1242 2.625 9.80471 3.1715 8.83186 4.14436C7.859 5.11721 7.3125 6.4367 7.3125 7.8125V10.9375V11.4375H7.8125H17.1875Z" fill="#007ACC" stroke="#007ACC"/>
</svg>
